# xmcd
#
# Track frame offsets: 
#        150
#        25725
#        47877
#        66150
#        87967
#        106307
#        128720
#        145210
#        164055
#        188235
#        212417
#        229237
#        251192
#        267625
#        289337
#        303747
#
# Disc length: 4321 seconds
#
# Revision: 1
# Processed by: cddbd v1.5.2PL0 Copyright (c) Steve Scherf et al.
# Submitted via: ExactAudioCopy v0.99pb4
#
DISCID=f910df10
DTITLE=Barry White (USA) - Barry White and Friends (LaserLight release)
DYEAR=1997
DGENRE=Soul
TTITLE0=Barry White, His Orchestra and Strings - Lady, Sweet Lady
TTITLE1=Barry White, His Orchestra and Strings - Love Makin' Music
TTITLE2=Barry White and Glodean White - This Love
TTITLE3=Barry White and Glodean White - The Better Love Is (The Worse It
TTITLE3=Is When It's Over)
TTITLE4=Barry White and Glodean White feat. Love Unlimited - Gotta Be Wh
TTITLE4=ere You Are
TTITLE5=Barry White, His Orchestra and Strings - Free
TTITLE6=Barry White and Glodean White - You
TTITLE7=Barry White, His Orchestra and Strings - Hung Up In Your Arms
TTITLE8=Love Unlimited Orchestra - Jamaican Girl
TTITLE9=Barry White and Glodean White - Didn't We Make It Happen Baby
TTITLE10=Barry White, His Orchestra and Strings - Relax To The Max
TTITLE11=Love Unlimited Orchestra - Bayou
TTITLE12=Barry White, His Orchestra and Strings - Life
TTITLE13=Love Unlimited Orchestra - I Did It For Love
TTITLE14=Barry White as Gene West - In The Ghetto
TTITLE15=Gloria Gayner and Isaah Hayes - You're The First, The Last, My 
TTITLE15=Everything
EXTD=Barry White and Friends
EXTT0=
EXTT1=
EXTT2=
EXTT3=
EXTT4=
EXTT5=
EXTT6=
EXTT7=
EXTT8=
EXTT9=
EXTT10=
EXTT11=
EXTT12=
EXTT13=
EXTT14=
EXTT15=
PLAYORDER=
